<?xml version="1.0" encoding="utf-8"?>
<!-- Generator: Adobe Illustrator 24.0.1, SVG Export Plug-In . SVG Version: 6.00 Build 0)  -->
<svg version="1.1" id="Capa_1" xmlns="http://www.w3.org/2000/svg" xmlns:xlink="http://www.w3.org/1999/xlink" x="0px" y="0px"
	 viewBox="0 0 512 512" style="enable-background:new 0 0 512 512;" xml:space="preserve">
<style type="text/css">
	.st0{fill:#FFFFFF;}
</style>
<g>
	<path class="st0" d="M506.2,465.9c-85.8-66.8-186.6-27.7-286-1.8L175.4,297c8.8,0.1,17.6,2.3,25.9,6.8c7.2,4.2,16.2,1.6,20.4-5.2
		c14.1-23.3,44.3-35.2,74.5-19.7c11.5,5.9,24.6-4.7,21.3-17.2c-21.7-82.2-102.4-131.8-183.2-117.9l-7.1-26.6
		c-2.1-8-10.4-12.8-18.4-10.6c-8,2.1-12.8,10.4-10.6,18.4l7.1,26.6c-77.3,28.5-122,112.1-99.6,193.9c3.4,12.6,20.5,15.1,27.3,3.8
		c14.7-24.4,46.2-34.9,74.4-19.9c7.1,3.8,15.8,1.3,19.9-5.5c4.9-8.1,11.5-14.5,19.1-19l44.6,166.5c-57.3,12.9-115,18-169.8-7.2
		c-7.5-3.5-16.4-0.1-19.9,7.4c-3.5,7.5-0.1,16.4,7.4,19.9c171.9,78.8,352.3-100.5,479-1.8c6.5,5.1,16,3.9,21.1-2.6
		C513.9,480.4,512.8,471,506.2,465.9L506.2,465.9z M278.1,242.2c-21.5-2.3-43.2,3.7-60.5,16.8c-9.9-33.5-28.4-63.9-54.8-87.6
		C210.5,171.8,255.6,198.8,278.1,242.2L278.1,242.2z M30.1,308.7c-2.2-47.8,22.4-94.3,64.6-119.1c-10.9,33.4-12,69-3.7,103.3
		C69.5,290.2,47.6,295.8,30.1,308.7z M120.4,286.6c-8.5-34.6-6.1-70.6,9-103.7c29.6,21.1,49.8,51,59.7,85.3
		C164.6,264,139.5,270.7,120.4,286.6z"/>
	<path class="st0" d="M285.3,136h16c8.3,0,15-6.7,15-15s-6.7-15-15-15h-16c-8.3,0-15,6.7-15,15S277,136,285.3,136z"/>
	<path class="st0" d="M391.1,171.4c27.8,0,50.4-22.6,50.4-50.4c0-27.8-22.6-50.4-50.4-50.4s-50.4,22.6-50.4,50.4
		C340.7,148.7,363.3,171.4,391.1,171.4z M391.1,100.5c11.3,0,20.4,9.2,20.4,20.4c0,11.3-9.2,20.4-20.4,20.4s-20.4-9.2-20.4-20.4
		S379.8,100.6,391.1,100.5z"/>
	<path class="st0" d="M391.1,46c8.3,0,15-6.7,15-15V15c0-8.3-6.7-15-15-15s-15,6.7-15,15v16C376.1,39.2,382.8,46,391.1,46z"/>
	<path class="st0" d="M316.8,67.9c5.9,5.9,15.4,5.9,21.2,0c5.9-5.9,5.9-15.4,0-21.2l-11.3-11.3c-5.9-5.9-15.4-5.9-21.2,0
		c-5.9,5.9-5.9,15.4,0,21.2L316.8,67.9z"/>
	<path class="st0" d="M316.8,174l-11.3,11.3c-5.9,5.9-5.9,15.4,0,21.2c5.9,5.9,15.4,5.9,21.2,0l11.3-11.3c5.9-5.9,5.9-15.4,0-21.2
		C332.2,168.1,322.7,168.1,316.8,174z"/>
	<path class="st0" d="M376.1,211v15.9c0,8.3,6.7,15,15,15s15-6.7,15-15V211c0-8.3-6.7-15-15-15S376.1,202.7,376.1,211z"/>
	<path class="st0" d="M444.1,174c-5.9,5.9-5.9,15.4,0,21.2l11.3,11.3c5.9,5.9,15.4,5.9,21.2,0c5.9-5.9,5.9-15.4,0-21.2L465.3,174
		C459.4,168.1,449.9,168.1,444.1,174z"/>
	<path class="st0" d="M466.1,121c0,8.3,6.7,15,15,15h16c8.3,0,15-6.7,15-15s-6.7-15-15-15h-16C472.8,106,466.1,112.7,466.1,121z"/>
	<path class="st0" d="M465.3,67.9l11.3-11.3c5.9-5.9,5.9-15.4,0-21.2c-5.9-5.9-15.4-5.9-21.2,0l-11.3,11.3c-5.9,5.9-5.9,15.4,0,21.2
		C449.9,73.8,459.4,73.8,465.3,67.9L465.3,67.9z"/>
</g>
</svg>
