<?xml version="1.0" encoding="utf-8"?>
<!-- Generator: Adobe Illustrator 24.0.1, SVG Export Plug-In . SVG Version: 6.00 Build 0)  -->
<svg version="1.1" id="Capa_1" xmlns="http://www.w3.org/2000/svg" xmlns:xlink="http://www.w3.org/1999/xlink" x="0px" y="0px"
	 viewBox="0 0 512 512" style="enable-background:new 0 0 512 512;" xml:space="preserve">
<style type="text/css">
	.st0{fill:#FFFFFF;}
</style>
<g>
	<path class="st0" d="M426.5,110.7c-15.1-29.9-37.9-56.6-64.9-75.9c-64.9-46.3-146.1-46.4-211.1,0c-27,19.3-49.8,46-64.9,75.9
		C37.9,116.5,0,157.1,0,206.4C0,259.7,43.8,303,97.5,303h316.9c53.8,0,97.5-43.3,97.5-96.5C512,157.1,474.1,116.5,426.5,110.7
		L426.5,110.7z M414.5,273c-18.9,0-302.8,0-316.9,0C60.3,273,30,243.1,30,206.4c0-35.7,29.5-65.5,65.7-66.5
		c5.8-0.2,10.9-3.6,13.3-8.9C136.1,70.6,195.2,30,256,30c53.4,0,105.5,31.4,135.7,79.9c-0.1,0-63.8,0-63.7,0c-8.3,0-15,6.7-15,15
		c0,8.3,6.7,15,15,15c66.1,0,87,0,88.3,0.1c36.2,1,65.7,30.8,65.7,66.5C482,243.1,451.7,273,414.5,273z"/>
	<path class="st0" d="M133.6,338.1c-7.7-3.1-16.4,0.7-19.5,8.4l-16,40c-3.9,9.9,3.3,20.6,13.9,20.6c6,0,11.6-3.6,13.9-9.4l16-40
		C145,349.9,141.3,341.1,133.6,338.1z"/>
	<path class="st0" d="M261.6,338.1c-7.7-3.1-16.4,0.7-19.5,8.4l-16,40c-3.9,9.9,3.3,20.6,13.9,20.6c6,0,11.6-3.6,13.9-9.4l16-40
		C273,349.9,269.3,341.1,261.6,338.1z"/>
	<path class="st0" d="M181.5,442c-7.7-3-16.4,0.8-19.4,8.5l-16,41c-3.9,9.9,3.5,20.5,14,20.5c6,0,11.7-3.6,14-9.6l16-41
		C193,453.7,189.2,445,181.5,442L181.5,442z"/>
	<path class="st0" d="M325.5,442c-7.7-3-16.4,0.8-19.4,8.5l-16,41c-3.9,9.9,3.5,20.5,14,20.5c6,0,11.7-3.6,14-9.6l16-41
		C337,453.7,333.2,445,325.5,442L325.5,442z"/>
	<path class="st0" d="M389.6,338.1c-7.7-3.1-16.4,0.7-19.5,8.4l-16,40c-3.9,9.9,3.3,20.6,13.9,20.6c6,0,11.6-3.6,13.9-9.4l16-40
		C401,349.9,397.3,341.1,389.6,338.1L389.6,338.1z"/>
</g>
</svg>
